Coordinates
version=1
nRows=13
nColumns=34
inDegrees=yes

Units are S.I. units (second, meters, Newtons, ...)
If the header above contains a line with 'inDegrees', this indicates whether rotational values are in degrees (yes) or radians (no).

endheader
time	pelvis_tilt	pelvis_list	pelvis_rotation	pelvis_tx	pelvis_ty	pelvis_tz	hip_flexion_r	hip_adduction_r	hip_rotation_r	knee_angle_r	ankle_angle_r	subtalar_angle_r	mtp_angle_r	hip_flexion_l	hip_adduction_l	hip_rotation_l	knee_angle_l	ankle_angle_l	subtalar_angle_l	mtp_angle_l	lumbar_extension	lumbar_bending	lumbar_rotation	arm_flex_r	arm_add_r	arm_rot_r	elbow_flex_r	pro_sup_r	arm_flex_l	arm_add_l	arm_rot_l	elbow_flex_l	pro_sup_l
      3.50000000	      1.20814093	      6.00203479	      8.01788522	      0.31901248	      0.97731028	     -0.01003929	     -7.05052023	      4.89315107	    -39.99999995	      4.27190870	     17.35709223	     -7.95464740	      0.00000000	     11.64983509	    -11.70281756	      6.35154707	      7.40920030	     -1.68638432	     13.41676432	      0.00000000	     -9.13951846	    -17.11187549	     17.90498394	     17.52068199	    -11.71974839	     45.97991506	     86.92094691	    119.74817918	      1.08956129	      1.26450124	    -35.41556840	     70.70909148	    114.25900013
      3.51666670	      1.38007237	      5.78522852	      7.68756061	      0.31589936	      0.97755084	     -0.00899763	     -6.89483683	      5.03329989	    -39.99999995	      4.53661749	     17.47477584	     -7.62668471	      0.00000000	     11.21660330	    -12.02882489	      6.40759846	      6.64467088	     -2.22676201	     13.10168120	      0.00000000	     -9.23825654	    -16.58017150	     16.66508760	     17.36792704	    -12.04755143	     46.02523036	     87.45181403	    119.74817918	      2.51880879	      2.23139668	    -34.60426935	     69.59185955	    114.14262156
      3.53333330	      1.87441582	      5.65802726	      7.00935682	      0.31294637	      0.97834132	     -0.00802287	     -7.11158072	      5.00655910	    -39.99999995	      4.83717420	     17.76699400	     -6.70869628	      0.00000000	     10.10430244	    -12.25113373	      7.13112785	      5.55033666	     -2.90842973	     11.33105780	      0.00000000	     -9.59968303	    -16.08609049	     15.83513832	     17.10038463	    -12.59380140	     45.74879999	     88.05921481	    119.74817918	      4.13505381	      3.21085626	    -33.50912451	     69.01464154	    113.44697066
      3.55000000	      1.99319501	      5.30170529	      6.58484427	      0.30921447	      0.97838836	     -0.00733207	     -6.74072532	      5.15508222	    -39.98874564	      5.35573686	     17.85926255	     -6.51496699	      0.00000000	      9.86187400	    -12.72289581	      6.93384775	      4.98259622	     -3.34152298	     11.26622778	      0.00000000	     -9.65901584	    -15.40001794	     14.35244832	     17.28872147	    -12.93810872	     45.76165688	     88.42194180	    119.74817918	      5.56891329	      4.09120121	    -32.78935035	     69.66031721	    113.40913983
      3.56666670	      2.24692017	      4.87537023	      5.98818640	      0.30547729	      0.97859907	     -0.00685940	     -6.47717181	      5.30252854	    -39.84520904	      5.98602221	     17.97455585	     -6.18118646	      0.00000000	      9.48918431	    -13.25725656	      6.72127428	      4.56978801	     -3.62720101	     11.01813020	      0.00000000	     -9.83655351	    -14.61745766	     12.98721137	     17.62345785	    -13.45362469	     45.92738919	     88.78521631	    119.74817918	      7.05219625	      4.98935151	    -31.85109280	     71.36882978	    113.36988291
      3.58333330	      2.52887461	      4.44067372	      5.19344745	      0.30171498	      0.97878673	     -0.00642111	     -6.21792432	      5.40886588	    -39.55548945	      6.67392940	     18.11808603	     -5.79414652	      0.00000000	      9.06532049	    -13.82153197	      6.42758051	      4.26066412	     -3.81933455	     10.62899551	      0.00000000	    -10.07121578	    -13.85833192	     11.62656171	     18.19796187	    -13.92932866	     46.27430879	     89.06977354	    119.74817918	      8.49823913	      5.73799409	    -30.46053572	     74.07574935	    113.36023629
      3.60000000	      3.00207371	      4.30604110	      4.11245124	      0.29852933	      0.97929484	     -0.00589228	     -6.29262396	      5.17084254	    -39.24455449	      7.27445456	     18.54920667	     -4.93825672	      0.00000000	      8.11241393	    -14.05731444	      6.12234216	      3.76278252	     -3.83908520	      9.71139575	      0.00000000	    -10.46676159	    -13.41638484	      9.87446872	     19.77555073	    -14.43331439	     48.18859380	     88.95621675	    119.74817918	      9.70045251	      5.99175511	    -28.74642377	     78.04490817	    112.95729064
      3.61666670	      3.48327437	      4.02180780	      3.05981062	      0.29466641	      0.97995189	     -0.00590026	     -6.19012024	      4.94379266	    -38.91842641	      8.22460296	     19.00295786	     -4.18124868	      0.00000000	      7.35613686	    -14.39018794	      5.69565713	      3.49665942	     -4.19188510	      8.74747176	      0.00000000	    -11.00733756	    -12.67703887	      8.06112875	     21.47858293	    -14.74196860	     49.90279211	     88.71703070	    119.74817918	     11.35612591	      6.04788941	    -26.24338886	     82.00162487	    112.19948630
      3.63333330	      3.73215221	      3.61477289	      2.04554867	      0.29054868	      0.98029452	     -0.00577748	     -5.80284048	      4.88200733	    -38.37969353	      9.13463293	     19.08852591	     -3.90187022	      0.00000000	      7.16593724	    -14.85826866	      5.23316039	      3.79025742	     -4.28766224	      8.26499268	      0.00000000	    -11.33059154	    -11.87468891	      6.73876488	     22.57571786	    -15.11038899	     50.82153318	     88.83944557	    119.74817918	     13.75873561	      5.75858656	    -22.48124246	     85.63916414	    112.34262992
      3.65000000	      4.03945087	      3.57946122	      0.67559647	      0.28646522	      0.98087461	     -0.00632260	     -5.42151081	      4.26886957	    -37.39339249	     10.19719866	     19.44597539	     -3.67973920	      0.00000000	      6.60573946	    -14.85899756	      4.39067012	      3.85353408	     -4.17625802	      7.42852333	      0.00000000	    -11.68352728	    -11.31491344	      5.07327880	     24.90508883	    -15.47533021	     53.60386118	     88.46792442	    119.74817918	     16.32457956	      5.12197699	    -18.52844407	     89.41864410	    112.09915056
      3.66666670	      4.26058136	      3.19606991	     -0.52049059	      0.28213327	      0.98143020	     -0.00698179	     -4.97849155	      4.11454944	    -36.68209510	     11.11946610	     19.45458597	     -3.42222193	      0.00000000	      6.44235643	    -15.23799921	      3.74580937	      4.30975778	     -4.19131692	      6.82077732	      0.00000000	    -12.07343065	    -10.42543095	      3.71254123	     26.33460787	    -15.51224548	     54.79004462	     88.09729011	    119.74817918	     19.90111301	      4.52779148	    -13.76790711	     92.48617900	    112.34215931
      3.68333330	      4.44188574	      2.96894292	     -1.87267806	      0.27776505	      0.98208198	     -0.00820336	     -4.50215919	      3.76447934	    -35.70192831	     11.96679159	     19.48071608	     -3.15051845	      0.00000000	      6.26062041	    -15.40193265	      2.95901147	      4.78073432	     -4.00758175	      6.04904854	      0.00000000	    -12.44417259	     -9.63721958	      2.36002800	     28.14860134	    -15.57009695	     56.59461096	     87.64725283	    119.74817918	     24.01212701	      3.74398354	     -8.32767718	     94.89379844	    112.65580874
      3.70000000	      4.71350394	      3.02752004	     -3.96996916	      0.27323066	      0.98301412	     -0.00957079	     -3.92626456	      2.97741682	    -33.43693592	     13.04556459	     19.51760859	     -3.69571376	      0.00000000	      5.46874129	    -15.22301983	      1.37843238	      4.84231662	     -3.92891088	      4.89135797	      0.00000000	    -12.84180412	     -9.13764913	      1.48468626	     30.50079886	    -15.76953447	     59.21698854	     87.21719504	    119.74817918	     28.68663112	      3.19802479	     -3.01277486	     96.02110443	    112.83441441
